<svg width="56" height="42" viewBox="0 0 56 42" fill="none" xmlns="http://www.w3.org/2000/svg">
<path d="M52.3397 36.5322H48.9795C48.5405 38.0427 47.6236 39.3701 46.367 40.3162C45.11 41.2619 43.5807 41.7756 42.0076 41.7795C40.4279 41.7912 38.8881 41.2845 37.6248 40.3365C36.3611 39.3884 35.4436 38.0521 35.0131 36.5322H24.0881C23.6475 38.0474 22.7268 39.3783 21.4643 40.3244C20.2018 41.2708 18.6659 41.7814 17.0881 41.7795C15.5076 41.7927 13.9662 41.2861 12.7018 40.3381C11.437 39.39 10.5186 38.0529 10.0881 36.5322H6.22954C5.5147 36.5337 4.82874 36.2505 4.32334 35.7451C3.81787 35.2396 3.53467 34.5533 3.53623 33.8385V28.6811C3.54013 28.0795 3.74248 27.4959 4.11201 27.0209C4.48193 26.5459 4.99795 26.2064 5.58001 26.0544V26.0041H24.648C25.1976 26.0041 25.7246 25.7861 26.1132 25.3974C26.5018 25.0087 26.7202 24.4818 26.7202 23.9322V6.41021C26.7202 5.99576 26.8847 5.59849 27.1777 5.30511C27.4706 5.01214 27.8683 4.84769 28.2824 4.84769H34.941C36.4652 4.85707 37.8957 5.58558 38.7992 6.81329C38.8718 6.88595 38.9449 7.03165 39.0175 7.10431L44.6175 15.5547L48.5655 16.1149C49.6967 16.2703 50.7335 16.8301 51.4839 17.6911C52.2343 18.5516 52.648 19.6548 52.648 20.7966V27.7349C53.3062 27.8185 53.9117 28.1372 54.3531 28.6325C54.7945 29.1275 55.0426 29.7653 55.0508 30.4286V33.8388C55.0519 34.5568 54.7664 35.2454 54.2574 35.7513C53.7484 36.2572 53.0578 36.5384 52.3402 36.5326L52.3397 36.5322ZM17.0597 30.8482C16.0992 30.8642 15.1827 31.2525 14.5035 31.9318C13.8243 32.6111 13.4355 33.5279 13.4199 34.488C13.4199 35.4536 13.8031 36.3794 14.4859 37.0622C15.1687 37.7446 16.0945 38.1282 17.0597 38.1282C18.0254 38.1282 18.9511 37.7446 19.6335 37.0622C20.3163 36.3794 20.6999 35.4536 20.6999 34.488C20.6999 33.5227 20.3163 32.597 19.6335 31.9142C18.9511 31.2317 18.0253 30.8482 17.0597 30.8482ZM42.0077 30.8536C41.0472 30.8696 40.1307 31.2583 39.4515 31.9376C38.7722 32.6165 38.3835 33.5333 38.3679 34.4938C38.3707 35.4583 38.755 36.3825 39.437 37.0645C40.1191 37.7462 41.0432 38.1309 42.0077 38.1336C42.9683 38.118 43.8847 37.7293 44.5639 37.05C45.2431 36.3707 45.6319 35.4539 45.6475 34.4938C45.6448 33.5294 45.2604 32.6051 44.5784 31.9231C43.8964 31.2411 42.9722 30.8567 42.0077 30.8536V30.8536ZM23.2197 20.9755V1.76753C23.2197 1.36519 23.0596 0.97925 22.7752 0.69453C22.4904 0.40976 22.1045 0.25 21.7022 0.25H14.4784L14.478 5.8949C14.478 6.16092 14.2624 6.37654 13.9964 6.37654H10.1995H10.1999C10.0721 6.37654 9.94947 6.32576 9.85924 6.23552C9.76901 6.1449 9.71823 6.02263 9.71823 5.8949V0.25H2.49403C2.09169 0.25 1.70574 0.40977 1.42102 0.69453C1.13625 0.9793 0.976497 1.36523 0.976497 1.76753V20.9755C0.976497 21.3779 1.13626 21.7638 1.42102 22.0485C1.70579 22.3329 2.09173 22.4931 2.49403 22.4931H21.708C22.1096 22.4915 22.494 22.331 22.7775 22.0466C23.0607 21.7622 23.2201 21.3771 23.2201 20.9755L23.2197 20.9755Z" fill="#005161"/>
</svg>
