<svg width="24" height="17" viewBox="0 0 24 17" fill="none" xmlns="http://www.w3.org/2000/svg">
<path d="M0 8.704C0.00540352 8.29057 0.172041 7.8956 0.464403 7.60323C0.756765 7.31087 1.15174 7.14423 1.56517 7.13883H18.6359L14.4621 2.96505C14.1633 2.66894 13.9943 2.26623 13.9923 1.84551C13.9903 1.42479 14.1556 1.02052 14.4517 0.721647C14.7478 0.42277 15.1505 0.253761 15.5712 0.251804C15.992 0.249847 16.3962 0.415102 16.6951 0.711212L23.5401 7.51447C23.8064 7.78382 23.969 8.1386 23.9992 8.51618C24.006 8.7382 23.9689 8.95938 23.8901 9.16706C23.8113 9.37475 23.6924 9.56488 23.5401 9.72657L16.6951 16.5507C16.399 16.8388 16.0022 17 15.5891 17C15.1759 17 14.7791 16.8388 14.483 16.5507C14.1899 16.2572 14.0253 15.8594 14.0253 15.4446C14.0253 15.0299 14.1899 14.6321 14.483 14.3386L18.6568 10.1648H1.64864C1.23814 10.1823 0.83688 10.0398 0.52936 9.76729C0.221842 9.4948 0.0320644 9.11361 0 8.704Z" fill="white"/>
</svg>
